<?xml version="1.0" ?><!DOCTYPE svg  PUBLIC '-//W3C//DTD SVG 1.1//EN'  'http://www.w3.org/Graphics/SVG/1.1/DTD/svg11.dtd'><svg enable-background="new 0 0 1024 1024" height="1024px" id="Layer_1" version="1.1" viewBox="0 0 1024 1024" width="1024px" xml:space="preserve" xmlns="http://www.w3.org/2000/svg" xmlns:xlink="http://www.w3.org/1999/xlink"><path d="M808.817,0H394.076L145.071,249.004v704.225c0,39.023,31.452,70.771,70.111,70.771h593.635  c38.66,0,70.111-31.748,70.111-70.771V70.772C878.929,31.748,847.478,0,808.817,0z M854.753,953.229  c0,25.566-20.607,46.367-45.936,46.367H215.183c-25.328,0-45.935-20.801-45.935-46.367V249.004h164.828c33,0,60-27,60-60v-164.6  h414.741c25.328,0,45.936,20.801,45.936,46.368V953.229z" fill="#2ECC71"/><g><path d="M80,670.833h65.071V585l-70.946,88.375h0.012C75.337,671.805,77.368,670.833,80,670.833z" fill="#262626"/><path d="M944,670.833h-65.071V585l70.946,88.375h-0.012C948.663,671.805,946.632,670.833,944,670.833z" fill="#262626"/><path d="M882.443,861.471c-1.934,5.149-8.015,9.362-13.515,9.362H155.071c-5.5,0-11.582-4.213-13.515-9.362   L73.514,680.195c-1.933-5.149,0.986-9.362,6.486-9.362h864c5.5,0,8.419,4.213,6.486,9.362L882.443,861.471z" fill="#2ECC71"/></g><g><path d="M295.569,818.323c0-5.013,1.483-8.881,4.454-11.606c2.969-2.724,7.287-4.087,12.955-4.087   c5.394,0,9.534,1.363,12.423,4.087c2.888,2.726,4.332,6.594,4.332,11.606c0,4.903-1.485,8.732-4.454,11.483   c-2.971,2.751-7.07,4.127-12.301,4.127c-5.395,0-9.645-1.362-12.751-4.086C297.122,827.123,295.569,823.282,295.569,818.323z" fill="#FFFFFF"/><path d="M451.271,769.609c0,19.943-5.49,35.31-16.47,46.098c-10.98,10.789-26.414,16.184-46.302,16.184h-38.66   V712.396h41.357c19.179,0,33.987,4.903,44.422,14.712C446.053,736.916,451.271,751.084,451.271,769.609z M417.761,770.754   c0-10.952-2.166-19.07-6.498-24.356c-4.332-5.285-10.911-7.929-19.738-7.929h-9.399v66.94h7.192c9.808,0,17-2.847,21.577-8.541   C415.472,791.175,417.761,782.47,417.761,770.754z" fill="#FFFFFF"/><path d="M601.743,831.891h-38.17l-11.443-52.064c-0.545-2.179-1.402-6.511-2.574-12.995s-2.031-11.905-2.574-16.266   c-0.438,3.543-1.145,7.942-2.125,13.2c-0.98,5.259-1.949,10.094-2.902,14.508s-4.918,22.286-11.893,53.617h-38.169l-29.587-119.494   h31.141l12.995,59.91c2.942,13.241,4.958,23.785,6.048,31.631c0.707-5.558,1.975-13.104,3.801-22.64   c1.824-9.535,3.527-17.437,5.109-23.703l10.543-45.198h29.914l10.217,45.198c1.744,7.248,3.514,15.611,5.313,25.093   c1.799,9.48,2.996,16.564,3.596,21.25c0.709-6.048,2.643-16.537,5.805-31.467l13.24-60.074h31.141L601.743,831.891z" fill="#FFFFFF"/><path d="M699.333,831.891h-32.285v-93.095h-29.18v-26.399h90.563v26.399h-29.098V831.891z" fill="#FFFFFF"/></g><g><g><path d="M729.983,369.821c0,8.25-9,15-20,15H314.852c-11,0-20-6.75-20-15s9-15,20-15h395.132    C720.983,354.821,729.983,361.571,729.983,369.821z" fill="#2ECC71"/></g><g><path d="M729.148,459.821c0,8.25-9,15-20,15H314.017c-11,0-20-6.75-20-15s9-15,20-15h395.132    C720.148,444.821,729.148,451.571,729.148,459.821z" fill="#2ECC71"/></g><g><path d="M729.983,550.016c0,8.25-9,15-20,15H314.852c-11,0-20-6.75-20-15s9-15,20-15h395.132    C720.983,535.016,729.983,541.766,729.983,550.016z" fill="#2ECC71"/></g></g></svg>